HIERARCHY
ROOT mixamorig:Hips
{
  OFFSET 0.000000 0.000000 0.000000
  CHANNELS 6 Xposition Yposition Zposition Zrotation Xrotation Yrotation
  JOINT mixamorig:Spine
  {
    OFFSET 0.000000 9.878500 1.258800
    CHANNELS 3 Zrotation Xrotation Yrotation
    JOINT mixamorig:Spine1
    {
      OFFSET 0.000000 11.272100 0.038100
      CHANNELS 3 Zrotation Xrotation Yrotation
      JOINT mixamorig:Spine2
      {
        OFFSET 0.000000 10.749001 -0.597600
        CHANNELS 3 Zrotation Xrotation Yrotation
        JOINT mixamorig:Neck
        {
          OFFSET 0.000000 12.015200 -1.691700
          CHANNELS 3 Zrotation Xrotation Yrotation
          JOINT mixamorig:Head
          {
            OFFSET 0.000000 8.810500 2.213900
            CHANNELS 3 Zrotation Xrotation Yrotation
            End Site
            {
              OFFSET 0.000000 18.232300 3.738000
            }
          }
        }
        JOINT mixamorig:LeftShoulder
        {
          OFFSET 6.002800 8.887900 -2.628900
          CHANNELS 3 Zrotation Xrotation Yrotation
          JOINT mixamorig:LeftArm
          {
            OFFSET 12.046300 0.000000 0.000000
            CHANNELS 3 Zrotation Xrotation Yrotation
            JOINT mixamorig:LeftForeArm
            {
              OFFSET 27.876501 0.000000 0.000000
              CHANNELS 3 Zrotation Xrotation Yrotation
              JOINT mixamorig:LeftHand
              {
                OFFSET 25.438500 0.000000 0.000000
                CHANNELS 3 Zrotation Xrotation Yrotation
                End Site
                {
                  OFFSET 10.0 0.0 0.0
                }
              }
            }
          }
        }
        JOINT mixamorig:RightShoulder
        {
          OFFSET -6.002800 8.887900 -2.628900
          CHANNELS 3 Zrotation Xrotation Yrotation
          JOINT mixamorig:RightArm
          {
            OFFSET -12.046300 0.000000 0.000000
            CHANNELS 3 Zrotation Xrotation Yrotation
            JOINT mixamorig:RightForeArm
            {
              OFFSET -27.876501 0.000000 0.000000
              CHANNELS 3 Zrotation Xrotation Yrotation
              JOINT mixamorig:RightHand
              {
                OFFSET -25.438500 0.000000 0.000000
                CHANNELS 3 Zrotation Xrotation Yrotation
                End Site
                {
                  OFFSET -10.0 0.0 0.0
                }
              }
            }
          }
        }
      }
    }
  }
}
MOTION
Frames: 20
Frame Time: 0.033333
51.6103 -118.0238 -0.0232 0.0000 0.0000 0.0000 -0.0714 -23.5814 0.0149 0.0000 0.0000 0.0000 0.0000 0.0000 0.0000 0.0000 0.0000 0.0000 0.0000 0.0000 0.0000 0.0000 0.0000 0.0000 -83.5580 -0.1594 -0.1784 -64.8768 28.8452 44.0611 0.0000 0.0000 0.0000 0.0000 0.0000 0.0000 84.8800 -1.4049 1.5363 75.0022 30.4068 -39.0029 0.0000 0.0000 0.0000
51.6187 -118.0959 -0.0239 0.0000 0.0000 0.0000 -0.0637 -18.7914 0.0105 0.0000 0.0000 0.0000 0.0000 0.0000 0.0000 0.0000 0.0000 0.0000 0.0000 0.0000 0.0000 0.0000 0.0000 0.0000 -82.6755 -7.3263 -8.3249 -72.6613 26.5847 35.6197 0.0000 0.0000 0.0000 0.0000 0.0000 0.0000 84.7868 -2.0945 2.2942 81.0095 27.4141 -31.8709 0.0000 0.0000 0.0000
51.6116 -118.6047 -0.0254 0.0000 0.0000 0.0000 -0.0700 -18.4691 0.0114 0.0000 0.0000 0.0000 0.0000 0.0000 0.0000 0.0000 0.0000 0.0000 0.0000 0.0000 0.0000 0.0000 0.0000 0.0000 -83.5233 -4.3615 -4.8840 -67.8975 28.8597 41.8354 0.0000 0.0000 0.0000 0.0000 0.0000 0.0000 84.8023 -1.6750 1.8342 80.7371 27.1502 -31.7129 0.0000 0.0000 0.0000
51.5954 -119.2997 -0.0275 0.0000 0.0000 0.0000 -0.0859 -16.8118 0.0127 0.0000 0.0000 0.0000 0.0000 0.0000 0.0000 0.0000 0.0000 0.0000 0.0000 0.0000 0.0000 0.0000 0.0000 0.0000 -83.7188 -4.0779 -4.5509 -70.0085 28.0970 39.3241 0.0000 0.0000 0.0000 0.0000 0.0000 0.0000 83.7033 -7.4840 8.3524 85.3368 23.3181 -25.2365 0.0000 0.0000 0.0000
51.6063 -120.0780 -0.0286 0.0000 0.0000 0.0000 -0.0723 -17.0303 0.0108 0.0000 0.0000 0.0000 0.0000 0.0000 0.0000 0.0000 0.0000 0.0000 0.0000 0.0000 0.0000 0.0000 0.0000 0.0000 -83.7775 -4.7029 -5.2429 -70.8114 27.6663 38.2138 0.0000 0.0000 0.0000 0.0000 0.0000 0.0000 84.5926 -3.4193 3.7581 82.8743 24.3379 -27.4544 0.0000 0.0000 0.0000
51.6068 -121.1663 -0.0295 0.0000 0.0000 0.0000 -0.0716 -17.3823 0.0109 0.0000 0.0000 0.0000 0.0000 0.0000 0.0000 0.0000 0.0000 0.0000 0.0000 0.0000 0.0000 0.0000 0.0000 0.0000 -84.1916 -3.7014 -4.0967 -70.6979 27.8012 38.4682 0.0000 0.0000 0.0000 0.0000 0.0000 0.0000 84.6360 -3.0878 3.3911 79.7294 26.4168 -31.3964 0.0000 0.0000 0.0000
51.5882 -121.4490 -0.0314 0.0000 0.0000 0.0000 -0.0876 -18.4760 0.0143 0.0000 0.0000 0.0000 0.0000 0.0000 0.0000 0.0000 0.0000 0.0000 0.0000 0.0000 0.0000 0.0000 0.0000 0.0000 -83.7770 -6.8937 -7.6840 -74.8851 26.2440 33.8636 0.0000 0.0000 0.0000 0.0000 0.0000 0.0000 84.1324 -5.4710 6.0610 80.4779 26.1067 -30.6437 0.0000 0.0000 0.0000
51.5966 -121.5832 -0.0319 0.0000 0.0000 0.0000 -0.0753 -18.9368 0.0126 0.0000 0.0000 0.0000 0.0000 0.0000 0.0000 0.0000 0.0000 0.0000 0.0000 0.0000 0.0000 0.0000 0.0000 0.0000 -83.9116 -6.8154 -7.5789 -71.5692 27.6351 37.6802 0.0000 0.0000 0.0000 0.0000 0.0000 0.0000 84.4307 -3.3223 3.6618 77.5557 27.6534 -34.0650 0.0000 0.0000 0.0000
51.6077 -121.5595 -0.0314 0.0000 0.0000 0.0000 -0.0619 -19.8011 0.0108 0.0000 0.0000 0.0000 0.0000 0.0000 0.0000 0.0000 0.0000 0.0000 0.0000 0.0000 0.0000 0.0000 0.0000 0.0000 -83.5891 -8.3529 -9.3399 -74.1184 26.3136 34.3981 0.0000 0.0000 0.0000 0.0000 0.0000 0.0000 83.9170 -6.1248 6.8107 80.5065 26.0051 -30.5113 0.0000 0.0000 0.0000
51.6187 -121.4954 -0.0311 0.0000 0.0000 0.0000 -0.0440 -19.2776 0.0075 0.0000 0.0000 0.0000 0.0000 0.0000 0.0000 0.0000 0.0000 0.0000 0.0000 0.0000 0.0000 0.0000 0.0000 0.0000 -83.7766 -8.0098 -8.9272 -73.2218 26.4972 35.1666 0.0000 0.0000 0.0000 0.0000 0.0000 0.0000 83.1972 -8.6344 9.7207 84.7587 22.7247 -24.8399 0.0000 0.0000 0.0000
51.6086 -121.4544 -0.0303 0.0000 0.0000 0.0000 -0.0524 -18.9927 0.0088 0.0000 0.0000 0.0000 0.0000 0.0000 0.0000 0.0000 0.0000 0.0000 0.0000 0.0000 0.0000 0.0000 0.0000 0.0000 -83.7236 -8.2122 -9.1611 -78.2023 23.6913 28.9420 0.0000 0.0000 0.0000 0.0000 0.0000 0.0000 82.8896 -9.3694 10.6041 85.9426 21.6559 -23.2047 0.0000 0.0000 0.0000
51.6109 -121.5613 -0.0283 0.0000 0.0000 0.0000 -0.0388 -17.2789 0.0059 0.0000 0.0000 0.0000 0.0000 0.0000 0.0000 0.0000 0.0000 0.0000 0.0000 0.0000 0.0000 0.0000 0.0000 0.0000 -83.9794 -7.4944 -8.3236 -77.1957 24.3566 30.2579 0.0000 0.0000 0.0000 0.0000 0.0000 0.0000 81.7562 -11.8866 13.7164 86.6819 20.4740 -21.6673 0.0000 0.0000 0.0000
51.5997 -121.5791 -0.0286 0.0000 0.0000 0.0000 -0.0371 -18.9089 0.0062 0.0000 0.0000 0.0000 0.0000 0.0000 0.0000 0.0000 0.0000 0.0000 0.0000 0.0000 0.0000 0.0000 0.0000 0.0000 -83.8584 -8.0559 -8.9657 -78.6179 23.3030 28.2726 0.0000 0.0000 0.0000 0.0000 0.0000 0.0000 81.1876 -12.8951 15.0254 82.1164 24.6018 -28.1077 0.0000 0.0000 0.0000
51.5977 -121.6255 -0.0275 0.0000 0.0000 0.0000 -0.0231 -17.3216 0.0035 0.0000 0.0000 0.0000 0.0000 0.0000 0.0000 0.0000 0.0000 0.0000 0.0000 0.0000 0.0000 0.0000 0.0000 0.0000 -84.3210 -6.7559 -7.4591 -78.8771 23.0277 27.8193 0.0000 0.0000 0.0000 0.0000 0.0000 0.0000 81.8338 -11.6892 13.4709 86.6155 20.3007 -21.5088 0.0000 0.0000 0.0000
51.5986 -121.7462 -0.0290 0.0000 0.0000 0.0000 -0.0051 -18.9198 0.0009 0.0000 0.0000 0.0000 0.0000 0.0000 0.0000 0.0000 0.0000 0.0000 0.0000 0.0000 0.0000 0.0000 0.0000 0.0000 -83.9228 -8.1174 -9.0239 -77.3669 24.2134 29.9950 0.0000 0.0000 0.0000 0.0000 0.0000 0.0000 84.3932 -2.9419 3.2447 78.2399 27.0015 -32.8957 0.0000 0.0000 0.0000
51.5279 -121.8738 -0.0294 0.0000 0.0000 0.0000 -0.0495 -18.8634 0.0082 0.0000 0.0000 0.0000 0.0000 0.0000 0.0000 0.0000 0.0000 0.0000 0.0000 0.0000 0.0000 0.0000 0.0000 0.0000 -84.2631 -7.0765 -7.8208 -78.4183 23.5065 28.6136 0.0000 0.0000 0.0000 0.0000 0.0000 0.0000 84.1415 -4.7467 5.2580 82.1172 24.3596 -27.8331 0.0000 0.0000 0.0000
51.4843 -121.9371 -0.0293 0.0000 0.0000 0.0000 -0.0537 -19.2034 0.0091 0.0000 0.0000 0.0000 0.0000 0.0000 0.0000 0.0000 0.0000 0.0000 0.0000 0.0000 0.0000 0.0000 0.0000 0.0000 -83.0584 -10.2775 -11.5962 -82.1354 20.6053 23.5674 0.0000 0.0000 0.0000 0.0000 0.0000 0.0000 83.8218 -5.8890 6.5595 82.4432 24.3353 -27.6525 0.0000 0.0000 0.0000
51.5302 -121.9832 -0.0293 0.0000 0.0000 0.0000 0.0095 -17.1424 -0.0014 0.0000 0.0000 0.0000 0.0000 0.0000 0.0000 0.0000 0.0000 0.0000 0.0000 0.0000 0.0000 0.0000 0.0000 0.0000 -81.5404 -13.2376 -15.3286 -84.7939 16.5076 18.0553 0.0000 0.0000 0.0000 0.0000 0.0000 0.0000 84.1520 -3.8792 4.2964 84.1534 22.7470 -25.1211 0.0000 0.0000 0.0000
51.4660 -122.0104 -0.0305 0.0000 0.0000 0.0000 -0.0035 -17.6894 0.0005 0.0000 0.0000 0.0000 0.0000 0.0000 0.0000 0.0000 0.0000 0.0000 0.0000 0.0000 0.0000 0.0000 0.0000 0.0000 -82.8410 -10.5616 -11.9615 -75.8083 23.9332 30.4559 0.0000 0.0000 0.0000 0.0000 0.0000 0.0000 83.3631 -7.2217 8.1080 84.2350 22.8798 -25.2319 0.0000 0.0000 0.0000
51.3697 -121.9612 -0.0261 0.0000 0.0000 0.0000 -0.0625 -17.6892 0.0097 0.0000 0.0000 0.0000 0.0000 0.0000 0.0000 0.0000 0.0000 0.0000 0.0000 0.0000 0.0000 0.0000 0.0000 0.0000 -84.9538 -2.6042 -2.8442 -71.7412 26.6041 36.2118 0.0000 0.0000 0.0000 0.0000 0.0000 0.0000 76.5311 -18.3497 23.1445 92.4693 12.2371 -11.7245 0.0000 0.0000 0.0000
